# xmcd CD database file
#
# Track frame offsets:
#	150
#	17894
#	45217
#	70670
#	93321
#	124166
#	145701
#	167454
#	186493
#	208928
#	233327
#	254892
#	273451
#	295901
#	318382
#
# Disc length: 4517 seconds
#
# Revision: 0
# Processed by: cddbd v1.5.2PL0 Copyright (c) Steve Scherf et al.
# Submitted via: CDex 1.70beta2
#
DISCID=d911a30f
DTITLE=Various Artist - Salsa - El Furor Del Baile
DYEAR=2007
DGENRE=Salsa
TTITLE0=Intro
TTITLE1=Frankie Negrón - Amanecer Contigo
TTITLE2=Pedro Conga - La Va A Pagar
TTITLE3=Luis Felipe González - Londres
TTITLE4=Fania All Stars - Guasasa
TTITLE5=Mariano Cívico - La Mitad
TTITLE6=Roberto Lugo - Compárame
TTITLE7=Orquesta Guayacán - Ay Amor Cuando Hablan Las Miradas
TTITLE8=Maelo Ruiz - Vicio
TTITLE9=Mimi Ibarra - Qué Tiene Ella
TTITLE10=Maelo Ruiz - Juégate
TTITLE11=El Gran Combo - Gotas De Lluvia
TTITLE12=El Gran Combo - Y No Hago Más Na
TTITLE13=Marc Anthony - Volando Entre Tus Brazos
TTITLE14=Maelo Ruiz - Regálame Una Noche
EXTD=YEAR: 2007
EXTT0=
EXTT1=
EXTT2=
EXTT3=
EXTT4=
EXTT5=
EXTT6=
EXTT7=
EXTT8=
EXTT9=
EXTT10=
EXTT11=
EXTT12=
EXTT13=
EXTT14=
PLAYORDER=
